<svg width="240" height="47" viewBox="0 0 240 47" fill="none" xmlns="http://www.w3.org/2000/svg">
<path d="M56.7793 20.913H54.9868L61.3682 3.82422H63.3281L69.7573 20.913H67.893L66.1722 16.1807H58.5002L56.7793 20.913ZM62.3242 5.47335L59.0738 14.6272H65.6225L62.372 5.47335H62.3242ZM74.4601 20.913H72.7153V3.82422H79.4075C83.0403 3.82422 85.0241 5.52115 85.0241 8.6521C85.0241 10.9226 83.7095 12.4762 81.8453 12.9542V13.002C85.765 13.7907 84.4027 20.4828 85.3348 20.7696V20.913H83.4705C82.6818 20.196 84.2354 13.8146 79.6704 13.8146H74.4601V20.913ZM74.4601 12.285H78.9773C81.7019 12.285 83.2793 11.066 83.2793 8.676C83.2793 6.50107 82.0365 5.35385 79.0968 5.35385H74.4601V12.285ZM94.2597 20.913H92.5388V5.35385H86.731V3.82422H100.092V5.35385H94.2597V20.913Z" fill="white"/>
<path d="M157.842 41.8258H156.05L162.431 24.737H164.391L170.82 41.8258H168.956L167.235 37.0935H159.563L157.842 41.8258ZM163.387 26.3861L160.137 35.54H166.685L163.435 26.3861H163.387ZM180.144 41.8258H178.424V26.2666H172.616V24.737H185.976V26.2666H180.144V41.8258ZM193.454 41.8258H191.709V24.737H193.454V41.8258ZM208.024 42.1365C203.077 42.1365 199.802 38.408 199.802 33.2694C199.802 28.1308 203.077 24.4263 208.024 24.4263C212.948 24.4263 216.222 28.1308 216.222 33.2694C216.222 38.408 212.948 42.1365 208.024 42.1365ZM208.024 40.6068C212.231 40.6068 214.406 37.3086 214.406 33.2694C214.406 29.2303 212.231 25.9559 208.024 25.9559C203.794 25.9559 201.619 29.2303 201.619 33.2694C201.619 37.3086 203.794 40.6068 208.024 40.6068ZM224.314 41.8258H222.57V24.737H224.697L233.946 39.364H233.994V24.737H235.739V41.8258H233.612L224.362 27.1987H224.314V41.8258Z" fill="white"/>
<path d="M144.367 41.8259H138.248V24.7371H144.438C149.218 24.7371 151.871 28.0353 151.871 33.3173C151.871 38.5993 149.147 41.8259 144.367 41.8259ZM139.993 40.2962H144.367C148.645 40.2962 150.055 37.0936 150.055 33.3173C150.055 29.5171 148.716 26.2667 144.414 26.2667H139.993V40.2962Z" fill="white"/>
<path d="M119.08 41.8259H117.335V24.7371H119.463L128.712 39.3641H128.76V24.7371H130.505V41.8259H128.377L119.128 27.1988H119.08V41.8259Z" fill="white"/>
<path d="M102.732 42.1366C98.2626 42.1366 96.3027 39.6987 96.3027 36.0659V24.7371H98.0475V36.0659C98.0475 39.1251 99.5771 40.6069 102.732 40.6069C105.887 40.6069 107.416 39.1251 107.416 36.0659V24.7371H109.161V36.0659C109.161 39.6987 107.201 42.1366 102.732 42.1366Z" fill="white"/>
<path d="M80.879 42.1365C75.9316 42.1365 72.6572 38.408 72.6572 33.2694C72.6572 28.1308 75.9316 24.4263 80.879 24.4263C85.8025 24.4263 89.0768 28.1308 89.0768 33.2694C89.0768 38.408 85.8025 42.1365 80.879 42.1365ZM80.879 40.6068C85.0854 40.6068 87.2604 37.3086 87.2604 33.2694C87.2604 29.2303 85.0854 25.9559 80.879 25.9559C76.6486 25.9559 74.4737 29.2303 74.4737 33.2694C74.4737 37.3086 76.6486 40.6068 80.879 40.6068Z" fill="white"/>
<path d="M114.682 21.2476C110.356 21.2476 107.321 19.0009 107.13 15.153H109.855C110.046 17.4474 111.408 19.0009 114.611 19.0009C117.359 19.0009 118.196 17.8059 118.196 16.2524C118.196 14.0775 116.523 13.7668 113.416 12.978C110.739 12.261 107.799 11.4006 107.799 8.15016C107.799 5.18651 110.094 3.48958 113.774 3.48958C117.67 3.48958 120.203 5.47331 120.466 8.91497H117.742C117.455 6.85954 116.284 5.73622 113.798 5.73622C111.647 5.73622 110.548 6.52493 110.548 8.00676C110.548 9.91879 112.34 10.3251 114.539 10.8748C117.837 11.7113 120.944 12.5 120.944 16.109C120.944 19.0487 118.961 21.2476 114.682 21.2476ZM126.939 20.913H124.31V3.82418H131.433C134.659 3.82418 137.025 5.32991 137.025 8.91497C137.025 12.5 134.659 13.9819 131.433 13.9819H126.939V20.913ZM126.939 11.7113H131.313C133.297 11.7113 134.301 10.827 134.301 8.91497C134.301 6.97904 133.297 6.09472 131.313 6.09472H126.939V11.7113ZM152.514 20.913H140.181V3.82418H152.275V6.09472H142.81V10.9465H151.104V13.217H142.81V18.6424H152.514V20.913ZM157.723 6.97107V3.4856H164.694V6.97107H157.723ZM157.723 17.4275H154.238V6.97107H157.723V17.4275ZM164.694 10.4565V6.97107H168.18V10.4565H164.694ZM168.18 17.4275H164.694V13.942H168.18V17.4275ZM164.694 17.4275V20.913H157.723V17.4275H164.694ZM176.294 20.913H173.641V6.09472H168.12V3.82418H181.815V6.09472H176.294V20.913ZM187.444 20.913H184.815V3.82418H191.938C195.714 3.82418 197.745 5.59282 197.745 8.74767C197.745 10.9226 196.431 12.5 194.543 12.9302V12.978C198.51 13.719 197.052 20.4589 197.984 20.7457V20.913H195.164C194.399 20.196 196.024 14.2209 191.842 14.2209H187.444V20.913ZM187.444 11.9503H191.364C193.778 11.9503 195.092 10.8987 195.092 8.93887C195.092 7.09854 194.041 6.09472 191.412 6.09472H187.444V11.9503ZM208.005 21.2476C203.32 21.2476 201.336 18.7858 201.336 15.1052V3.82418H203.965V15.1052C203.965 17.7581 205.304 18.977 208.005 18.977C210.729 18.977 212.044 17.7581 212.044 15.1052V3.82418H214.697V15.1052C214.697 18.7858 212.713 21.2476 208.005 21.2476ZM221.518 20.913H218.937V3.82418H222.403L227.326 17.2562H227.374L232.321 3.82418H235.787V20.913H233.206V7.64825H233.158L228.449 20.913H226.274L221.566 7.64825H221.518V20.913Z" fill="white"/>
<path d="M57.3375 41.8259H55.5928V24.7371H67.0172V26.2667H57.3375V32.3135H65.3202V33.8431H57.3375V41.8259Z" fill="white"/>
<path d="M23.4813 44.8133C20.2971 43.2544 17.594 41.5935 15.1985 40.1125C9.89819 36.8349 7.238 35.4021 0.000488281 35.4021V41.4876C5.5692 41.4876 7.33202 41.9456 11.975 44.8133H23.4813Z" fill="white"/>
<path d="M34.5961 5.24985C39.8937 8.52549 42.5529 9.95256 49.7914 9.95256V3.86703C44.2209 3.86703 42.4598 3.41379 37.8169 0.547119H26.3115C29.4967 2.10603 32.2007 3.76791 34.5961 5.24985Z" fill="white"/>
<path d="M0.000911728 29.8698C8.72737 29.8698 12.4027 32.1428 17.9687 35.5839C24.9442 39.8979 33.6241 44.8133 49.7925 44.8133L49.7916 38.722C35.1121 38.722 27.4775 34.7708 20.7403 30.6041C14.8594 26.9675 10.2163 23.7843 0.000911728 23.7843V29.8698ZM0.000911728 6.63339C14.6804 6.63339 22.315 11.0436 29.0531 15.2103C34.9331 18.8468 39.5753 21.571 49.7925 21.571L49.7916 15.4855C41.0643 15.4855 37.3889 13.6715 31.8238 10.2305C24.8493 5.91647 16.1675 0.547852 0 0.547852L0.000911728 6.63339Z" fill="white"/>
<path d="M0 12.0947C13.1923 12.0947 19.8465 16.2104 26.2816 20.1905C32.3524 23.9444 38.0882 27.1026 49.7925 27.1026L49.7916 33.1881C36.5992 33.1881 29.9451 29.1494 23.51 25.1693C17.4392 21.4155 11.7034 18.186 0 18.186V12.0947Z" fill="white"/>
</svg>
