<svg width="241" height="47" viewBox="0 0 241 47" fill="none" xmlns="http://www.w3.org/2000/svg">
<path d="M57.016 21H55.216L61.624 3.84H63.592L70.048 21H68.176L66.448 16.248H58.744L57.016 21ZM62.584 5.496L59.32 14.688H65.896L62.632 5.496H62.584ZM74.7704 21H73.0184V3.84H79.7384C83.3864 3.84 85.3784 5.544 85.3784 8.688C85.3784 10.968 84.0584 12.528 82.1864 13.008V13.056C86.1224 13.848 84.7544 20.568 85.6904 20.856V21H83.8184C83.0264 20.28 84.5864 13.872 80.0024 13.872H74.7704V21ZM74.7704 12.336H79.3064C82.0424 12.336 83.6264 11.112 83.6264 8.712C83.6264 6.528 82.3784 5.376 79.4264 5.376H74.7704V12.336ZM94.6525 21H92.9245V5.376H87.0925V3.84H100.509V5.376H94.6525V21Z" fill="black"/>
<path d="M158.5 42H156.7L163.108 24.84H165.076L171.532 42H169.66L167.932 37.248H160.228L158.5 42ZM164.068 26.496L160.804 35.688H167.38L164.116 26.496H164.068ZM180.895 42H179.167V26.376H173.335V24.84H186.751V26.376H180.895V42ZM194.26 42H192.508V24.84H194.26V42ZM208.891 42.312C203.923 42.312 200.635 38.568 200.635 33.408C200.635 28.248 203.923 24.528 208.891 24.528C213.835 24.528 217.123 28.248 217.123 33.408C217.123 38.568 213.835 42.312 208.891 42.312ZM208.891 40.776C213.115 40.776 215.299 37.464 215.299 33.408C215.299 29.352 213.115 26.064 208.891 26.064C204.643 26.064 202.459 29.352 202.459 33.408C202.459 37.464 204.643 40.776 208.891 40.776ZM225.249 42H223.497V24.84H225.633L234.921 39.528H234.969V24.84H236.721V42H234.585L225.297 27.312H225.249V42Z" fill="black"/>
<path d="M144.968 42H138.824V24.84H145.04C149.84 24.84 152.504 28.152 152.504 33.456C152.504 38.76 149.768 42 144.968 42ZM140.576 40.464H144.968C149.264 40.464 150.68 37.248 150.68 33.456C150.68 29.64 149.336 26.376 145.016 26.376H140.576V40.464Z" fill="black"/>
<path d="M119.576 42H117.824V24.84H119.96L129.248 39.528H129.296V24.84H131.048V42H128.912L119.624 27.312H119.576V42Z" fill="black"/>
<path d="M103.16 42.312C98.672 42.312 96.704 39.864 96.704 36.216V24.84H98.456V36.216C98.456 39.288 99.992 40.776 103.16 40.776C106.328 40.776 107.864 39.288 107.864 36.216V24.84H109.616V36.216C109.616 39.864 107.648 42.312 103.16 42.312Z" fill="black"/>
<path d="M81.216 42.312C76.248 42.312 72.96 38.568 72.96 33.408C72.96 28.248 76.248 24.528 81.216 24.528C86.16 24.528 89.448 28.248 89.448 33.408C89.448 38.568 86.16 42.312 81.216 42.312ZM81.216 40.776C85.44 40.776 87.624 37.464 87.624 33.408C87.624 29.352 85.44 26.064 81.216 26.064C76.968 26.064 74.784 29.352 74.784 33.408C74.784 37.464 76.968 40.776 81.216 40.776Z" fill="black"/>
<path d="M115.16 21.336C110.816 21.336 107.768 19.08 107.576 15.216H110.312C110.504 17.52 111.872 19.08 115.088 19.08C117.848 19.08 118.688 17.88 118.688 16.32C118.688 14.136 117.008 13.824 113.888 13.032C111.2 12.312 108.248 11.448 108.248 8.184C108.248 5.208 110.552 3.504 114.248 3.504C118.16 3.504 120.704 5.496 120.968 8.952H118.232C117.944 6.888 116.768 5.76 114.272 5.76C112.112 5.76 111.008 6.552 111.008 8.04C111.008 9.96 112.808 10.368 115.016 10.92C118.328 11.76 121.448 12.552 121.448 16.176C121.448 19.128 119.456 21.336 115.16 21.336ZM127.468 21H124.828V3.84H131.98C135.22 3.84 137.596 5.352 137.596 8.952C137.596 12.552 135.22 14.04 131.98 14.04H127.468V21ZM127.468 11.76H131.86C133.852 11.76 134.86 10.872 134.86 8.952C134.86 7.008 133.852 6.12 131.86 6.12H127.468V11.76ZM153.149 21H140.765V3.84H152.909V6.12H143.405V10.992H151.733V13.272H143.405V18.72H153.149V21ZM158.38 7V3.5H165.38V7H158.38ZM158.38 17.5H154.88V7H158.38V17.5ZM165.38 10.5V7H168.88V10.5H165.38ZM168.88 17.5H165.38V14H168.88V17.5ZM165.38 17.5V21H158.38V17.5H165.38ZM177.028 21H174.364V6.12H168.82V3.84H182.572V6.12H177.028V21ZM188.225 21H185.585V3.84H192.737C196.529 3.84 198.569 5.616 198.569 8.784C198.569 10.968 197.249 12.552 195.353 12.984V13.032C199.337 13.776 197.873 20.544 198.809 20.832V21H195.977C195.209 20.28 196.841 14.28 192.641 14.28H188.225V21ZM188.225 12H192.161C194.585 12 195.905 10.944 195.905 8.976C195.905 7.128 194.849 6.12 192.209 6.12H188.225V12ZM208.871 21.336C204.167 21.336 202.175 18.864 202.175 15.168V3.84H204.815V15.168C204.815 17.832 206.159 19.056 208.871 19.056C211.607 19.056 212.927 17.832 212.927 15.168V3.84H215.591V15.168C215.591 18.864 213.599 21.336 208.871 21.336ZM222.441 21H219.849V3.84H223.329L228.273 17.328H228.321L233.289 3.84H236.769V21H234.177V7.68H234.129L229.401 21H227.217L222.489 7.68H222.441V21Z" fill="black"/>
<path d="M57.576 42H55.824V24.84H67.296V26.376H57.576V32.448H65.592V33.984H57.576V42Z" fill="black"/>
<path d="M23.5791 45C20.3816 43.4346 17.6673 41.7668 15.2618 40.2796C9.9394 36.9884 7.26812 35.5496 0.000455856 35.5496V41.6605C5.59237 41.6605 7.36254 42.1204 12.0249 45H23.5791Z" fill="black"/>
<path d="M34.7405 5.27171C40.0601 8.561 42.7305 9.99402 49.9991 9.99402V3.88313C44.4053 3.88313 42.637 3.428 37.9746 0.549389H26.4214C29.6198 2.1148 32.335 3.7836 34.7405 5.27171Z" fill="black"/>
<path d="M0.000915527 29.9943C8.76373 29.9943 12.4544 32.2767 18.0436 35.7322C25.0481 40.0641 33.7642 45 50 45L49.9991 38.8833C35.2584 38.8833 27.592 34.9157 20.8267 30.7316C14.9213 27.0799 10.2589 23.8834 0.000915527 23.8834V29.9943ZM0.000915527 6.66102C14.7416 6.66102 22.408 11.0896 29.1742 15.2737C35.0787 18.9253 39.7402 21.6609 50 21.6609L49.9991 15.55C41.2354 15.55 37.5447 13.7285 31.9564 10.2731C24.9528 5.94112 16.2349 0.550129 0 0.550129L0.000915527 6.66102Z" fill="black"/>
<path d="M0 12.145C13.2473 12.145 19.9292 16.2778 26.3911 20.2745C32.4872 24.044 38.2469 27.2154 50 27.2154L49.9991 33.3263C36.7517 33.3263 30.0699 29.2707 23.608 25.2741C17.5119 21.5046 11.7522 18.2617 0 18.2617V12.145Z" fill="black"/>
</svg>
